<svg xmlns="http://www.w3.org/2000/svg" fill="none" viewBox="0 0 24 24" id="Gynecology--Streamline-Outlined-Material" height="24" width="24">
  <desc>
    Gynecology Streamline Icon: https://streamlinehq.com
  </desc>
  <path fill="#000000" d="m9.375 21.45 -0.8 -1.55c-0.13235 -0.2685 -0.2279 -0.54485 -0.28675 -0.829 -0.05885 -0.28415 -0.08825 -0.57625 -0.08825 -0.87625 0 -0.36315 0.05015 -0.71785 0.1505 -1.064 0.10035 -0.34615 0.2585 -0.6731 0.4745 -0.98075 0.13335 -0.21665 0.24165 -0.43985 0.325 -0.6695 0.08335 -0.22965 0.125 -0.47315 0.125 -0.7305 0 -0.28485 -0.05 -0.5519 -0.15 -0.80125 -0.1 -0.24915 -0.21665 -0.49875 -0.35 -0.74875 -0.13335 -0.3 -0.25415 -0.6085 -0.3625 -0.9255 -0.10835 -0.31685 -0.1625 -0.64165 -0.1625 -0.9745v-4.05c0 -0.48615 -0.15415 -0.89935 -0.4625 -1.2395C7.47915 5.67015 7.09165 5.5 6.625 5.5c-0.43335 0 -0.80415 0.1375 -1.1125 0.4125 -0.30835 0.275 -0.47915 0.6125 -0.5125 1.0125 0.58115 0.218 1.05985 0.58275 1.436 1.09425 0.376 0.5115 0.564 1.08585 0.564 1.723 0 0.8385 -0.29165 1.5494 -0.875 2.13275S4.833335 12.75 4 12.75c-0.833335 0 -1.541665 -0.29165 -2.125 -0.875C1.291665 11.29165 1 10.58335 1 9.75c0 -0.75 0.2375 -1.4 0.7125 -1.95 0.475 -0.55 1.070835 -0.88335 1.7875 -1 0.066665 -0.8 0.3995 -1.46665 0.9985 -2C5.09735 4.266665 5.80615 4 6.625 4c0.12785 0 0.2556 0.008335 0.38325 0.025 0.12785 0.016665 0.24785 0.041665 0.36 0.075 0.7045 -0.416665 1.44665 -0.704165 2.2265 -0.8625 0.77965 -0.158335 1.5795 -0.2375 2.3995 -0.2375 0.80385 0 1.5974 0.079165 2.38075 0.2375s1.52725 0.445835 2.23175 0.8625c0.11215 -0.033335 0.23215 -0.058335 0.36 -0.075 0.12765 -0.016665 0.2554 -0.025 0.38325 -0.025 0.81665 0 1.525 0.2625 2.125 0.7875 0.6 0.525 0.93335 1.1875 1 1.9875 0.71665 0.11665 1.31665 0.45415 1.8 1.0125C22.75835 8.34585 23 9 23 9.75c0 0.83335 -0.29165 1.54165 -0.875 2.125S20.83335 12.75 20 12.75s-1.54165 -0.29165 -2.125 -0.875S17 10.58335 17 9.75c0 -0.65 0.18335 -1.22915 0.55 -1.7375 0.36665 -0.50835 0.84165 -0.87085 1.425 -1.0875 -0.03335 -0.41665 -0.2056 -0.75835 -0.51675 -1.025 -0.311 -0.26665 -0.6804 -0.4 -1.10825 -0.4 -0.452 0 -0.83165 0.17015 -1.139 0.5105 -0.30735 0.34015 -0.461 0.75335 -0.461 1.2395v4.05c0 0.3325 -0.05835 0.6571 -0.175 0.97375 -0.11665 0.31665 -0.25 0.6254 -0.4 0.92625 -0.11665 0.2495 -0.22085 0.499 -0.3125 0.7485 -0.09165 0.24965 -0.1375 0.5171 -0.1375 0.80225 0 0.2495 0.0375 0.4951 0.1125 0.73675 0.075 0.24165 0.17915 0.4625 0.3125 0.6625 0.21665 0.3 0.37915 0.62675 0.4875 0.98025 0.10835 0.35335 0.1625 0.71065 0.1625 1.072 0 0.2985 -0.03535 0.58925 -0.106 0.87225 -0.0705 0.283 -0.1685 0.55815 -0.294 0.8255l-0.8 1.55 -1.35 -0.675 0.775 -1.55c0.08335 -0.16665 0.15 -0.3344 0.2 -0.50325 0.05 -0.16865 0.075 -0.34675 0.075 -0.53425 0 -0.225 -0.03335 -0.4375 -0.1 -0.6375 -0.06665 -0.2 -0.16665 -0.39165 -0.3 -0.575 -0.23335 -0.33335 -0.40415 -0.6854 -0.5125 -1.05625 -0.10835 -0.37085 -0.1625 -0.7494 -0.1625 -1.13575 0 -0.35535 0.05415 -0.6955 0.1625 -1.0205 0.10835 -0.325 0.24585 -0.64585 0.4125 -0.9625 0.11665 -0.23335 0.22085 -0.47625 0.3125 -0.72875 0.09165 -0.25235 0.1375 -0.5094 0.1375 -0.77125v-4.06025c0 -0.42735 0.075 -0.8325 0.225 -1.2155 0.15 -0.38285 0.35835 -0.7159 0.625 -0.99925 -0.48335 -0.183335 -0.98715 -0.316665 -1.5115 -0.4 -0.5245 -0.083335 -1.05365 -0.125 -1.5875 -0.125 -0.534 0 -1.0635 0.041665 -1.5885 0.125 -0.525 0.083335 -1.02915 0.216665 -1.5125 0.4 0.26665 0.28335 0.475 0.6164 0.625 0.99925 0.15 0.383 0.225 0.78815 0.225 1.2155V11.3c0 0.26665 0.04165 0.525 0.125 0.775 0.08335 0.25 0.19165 0.49165 0.325 0.725 0.15 0.31665 0.28335 0.6375 0.4 0.9625 0.11665 0.325 0.175 0.66315 0.175 1.0145 0 0.382 -0.06035 0.76015 -0.181 1.1345 -0.12065 0.3745 -0.29365 0.729 -0.519 1.0635 -0.13335 0.18335 -0.22915 0.3771 -0.2875 0.58125 -0.05835 0.20415 -0.0875 0.4176 -0.0875 0.64025 0 0.18565 0.02085 0.36185 0.0625 0.5285 0.04165 0.16665 0.10415 0.33335 0.1875 0.5l0.775 1.55 -1.35 0.675ZM4 11.25c0.425 0 0.78125 -0.14375 1.06875 -0.43125 0.2875 -0.2875 0.43125 -0.64375 0.43125 -1.06875 0 -0.425 -0.14375 -0.78125 -0.43125 -1.06875C4.78125 8.39375 4.425 8.25 4 8.25c-0.425 0 -0.78125 0.14375 -1.06875 0.43125C2.64375 8.96875 2.5 9.325 2.5 9.75c0 0.425 0.14375 0.78125 0.43125 1.06875 0.2875 0.2875 0.64375 0.43125 1.06875 0.43125Zm16 0c0.425 0 0.78125 -0.14375 1.06875 -0.43125 0.2875 -0.2875 0.43125 -0.64375 0.43125 -1.06875 0 -0.425 -0.14375 -0.78125 -0.43125 -1.06875C20.78125 8.39375 20.425 8.25 20 8.25c-0.425 0 -0.78125 0.14375 -1.06875 0.43125C18.64375 8.96875 18.5 9.325 18.5 9.75c0 0.425 0.14375 0.78125 0.43125 1.06875 0.2875 0.2875 0.64375 0.43125 1.06875 0.43125Z" stroke-width="0.5"></path>
</svg>